<svg width="69" height="40" viewBox="0 0 69 40" fill="none" xmlns="http://www.w3.org/2000/svg">
<path d="M37.7734 6.67286C37.7734 6.08362 38.0075 5.51852 38.4241 5.10186C38.8408 4.6852 39.4059 4.45113 39.9951 4.45113H66.656C67.2452 4.45113 67.8103 4.6852 68.227 5.10186C68.6436 5.51852 68.8777 6.08362 68.8777 6.67286C68.8777 7.26211 68.6436 7.82721 68.227 8.24387C67.8103 8.66053 67.2452 8.8946 66.656 8.8946H39.9951C39.4059 8.8946 38.8408 8.66053 38.4241 8.24387C38.0075 7.82721 37.7734 7.26211 37.7734 6.67286ZM66.656 17.7815H39.9951C39.4059 17.7815 38.8408 18.0156 38.4241 18.4323C38.0075 18.8489 37.7734 19.414 37.7734 20.0033C37.7734 20.5925 38.0075 21.1576 38.4241 21.5743C38.8408 21.9909 39.4059 22.225 39.9951 22.225H66.656C67.2452 22.225 67.8103 21.9909 68.227 21.5743C68.6436 21.1576 68.8777 20.5925 68.8777 20.0033C68.8777 19.414 68.6436 18.8489 68.227 18.4323C67.8103 18.0156 67.2452 17.7815 66.656 17.7815ZM66.656 31.112H46.6603C46.0711 31.112 45.506 31.346 45.0893 31.7627C44.6727 32.1794 44.4386 32.7445 44.4386 33.3337C44.4386 33.9229 44.6727 34.488 45.0893 34.9047C45.506 35.3214 46.0711 35.5554 46.6603 35.5554H66.656C67.2452 35.5554 67.8103 35.3214 68.227 34.9047C68.6436 34.488 68.8777 33.9229 68.8777 33.3337C68.8777 32.7445 68.6436 32.1794 68.227 31.7627C67.8103 31.346 67.2452 31.112 66.656 31.112ZM39.9257 37.2217C39.9983 37.5044 40.0146 37.7986 39.9735 38.0875C39.9324 38.3764 39.8348 38.6544 39.6862 38.9056C39.5377 39.1568 39.3411 39.3763 39.1077 39.5515C38.8743 39.7267 38.6087 39.8542 38.326 39.9267C38.145 39.9755 37.9582 39.9998 37.7706 39.9989C37.2779 39.9992 36.799 39.8356 36.4094 39.534C36.0198 39.2323 35.7415 38.8097 35.6183 38.3326C33.9076 31.6841 27.1924 26.6685 19.9967 26.6685C12.8011 26.6685 6.08587 31.6813 4.37513 38.3326C4.22782 38.9034 3.85979 39.3924 3.35199 39.6918C2.84419 39.9913 2.23822 40.0768 1.66739 39.9295C1.09657 39.7822 0.607637 39.4141 0.308165 38.9063C0.00869326 38.3985 -0.0767902 37.7926 0.07052 37.2217C1.62296 31.1925 6.13586 26.3102 11.8624 23.8913C9.6574 22.193 8.0393 19.8471 7.23502 17.1826C6.43074 14.5181 6.48062 11.6687 7.37766 9.03398C8.2747 6.39928 9.97392 4.11143 12.237 2.49129C14.5001 0.871156 17.2135 0 19.9967 0C22.7799 0 25.4934 0.871156 27.7564 2.49129C30.0195 4.11143 31.7187 6.39928 32.6158 9.03398C33.5128 11.6687 33.5627 14.5181 32.7584 17.1826C31.9541 19.8471 30.336 22.193 28.1311 23.8913C33.8604 26.3102 38.3733 31.1925 39.9257 37.2217ZM19.9995 22.225C21.7572 22.225 23.4754 21.7038 24.9368 20.7273C26.3983 19.7508 27.5373 18.3628 28.21 16.739C28.8826 15.1151 29.0586 13.3282 28.7157 11.6043C28.3728 9.88042 27.5264 8.29692 26.2835 7.05405C25.0407 5.81119 23.4572 4.96479 21.7333 4.62189C20.0094 4.27898 18.2225 4.45497 16.5986 5.12761C14.9747 5.80024 13.5868 6.9393 12.6103 8.40075C11.6338 9.8622 11.1125 11.5804 11.1125 13.3381C11.1125 15.695 12.0489 17.9555 13.7155 19.6221C15.3821 21.2887 17.6425 22.225 19.9995 22.225Z" fill="#E2242C"/>
</svg>
