<svg width="40" height="40" viewBox="0 0 40 40" fill="none" xmlns="http://www.w3.org/2000/svg">
<path d="M16.6661 38.3321C16.6661 38.7741 16.4905 39.198 16.178 39.5106C15.8654 39.8231 15.4415 39.9987 14.9995 39.9987H3.33322C2.4492 39.9987 1.60138 39.6475 0.976279 39.0224C0.351178 38.3973 0 37.5495 0 36.6655V3.33322C0 2.4492 0.351178 1.60138 0.976279 0.976279C1.60138 0.351178 2.4492 0 3.33322 0H14.9995C15.4415 0 15.8654 0.175589 16.178 0.48814C16.4905 0.80069 16.6661 1.2246 16.6661 1.66661C16.6661 2.10863 16.4905 2.53253 16.178 2.84508C15.8654 3.15763 15.4415 3.33322 14.9995 3.33322H3.33322V36.6655H14.9995C15.4415 36.6655 15.8654 36.8411 16.178 37.1536C16.4905 37.4662 16.6661 37.8901 16.6661 38.3321ZM39.5112 18.8202L31.1781 10.4872C30.8654 10.1744 30.4413 9.99875 29.999 9.99875C29.5568 9.99875 29.1326 10.1744 28.8199 10.4872C28.5072 10.7999 28.3315 11.224 28.3315 11.6663C28.3315 12.1085 28.5072 12.5327 28.8199 12.8454L34.3093 18.3327H14.9995C14.5575 18.3327 14.1336 18.5083 13.821 18.8209C13.5085 19.1334 13.3329 19.5573 13.3329 19.9993C13.3329 20.4414 13.5085 20.8653 13.821 21.1778C14.1336 21.4904 14.5575 21.666 14.9995 21.666H34.3093L28.8199 27.1533C28.5072 27.466 28.3315 27.8901 28.3315 28.3324C28.3315 28.7747 28.5072 29.1988 28.8199 29.5115C29.1326 29.8243 29.5568 29.9999 29.999 29.9999C30.4413 29.9999 30.8654 29.8243 31.1781 29.5115L39.5112 21.1785C39.6662 21.0237 39.7891 20.8399 39.873 20.6376C39.9568 20.4352 40 20.2184 40 19.9993C40 19.7803 39.9568 19.5635 39.873 19.3611C39.7891 19.1588 39.6662 18.975 39.5112 18.8202Z" fill="#E2242C"/>
</svg>
