<svg width="12" height="14" viewBox="0 0 12 14" fill="none" xmlns="http://www.w3.org/2000/svg">
<path id="Vector" d="M6.99709 10.0016C7.9856 10.0016 8.95191 9.70848 9.77383 9.15929C10.5957 8.6101 11.2364 7.82952 11.6146 6.91626C11.9929 6.00299 12.0919 4.99806 11.8991 4.02855C11.7062 3.05903 11.2302 2.16847 10.5312 1.46949C9.83223 0.770507 8.94167 0.294495 7.97215 0.101646C7.00264 -0.091203 5.99771 0.00777395 5.08444 0.38606C4.17118 0.764347 3.3906 1.40495 2.84141 2.22687C2.29223 3.04879 1.9991 4.0151 1.9991 5.00361C2.00059 6.3287 2.52764 7.5991 3.46462 8.53608C4.4016 9.47306 5.672 10.0001 6.99709 10.0016ZM6.99709 1.00521C7.7879 1.00521 8.56095 1.23971 9.21848 1.67906C9.87602 2.11841 10.3885 2.74288 10.6911 3.47349C10.9938 4.2041 11.0729 5.00804 10.9187 5.78366C10.7644 6.55927 10.3836 7.27171 9.82439 7.8309C9.2652 8.39009 8.55276 8.7709 7.77714 8.92518C7.00153 9.07946 6.19759 9.00027 5.46697 8.69764C4.73636 8.39502 4.1119 7.88253 3.67255 7.225C3.2332 6.56746 2.9987 5.79441 2.9987 5.00361C2.99985 3.94352 3.42148 2.92719 4.17108 2.17759C4.92067 1.428 5.93701 1.00637 6.99709 1.00521ZM11.8558 9.34562C11.9013 9.39297 11.9371 9.44884 11.961 9.51003C11.9849 9.57121 11.9965 9.63652 11.9952 9.7022C11.9939 9.76789 11.9796 9.83267 11.9532 9.89283C11.9268 9.953 11.8888 10.0074 11.8414 10.0528C10.6652 11.187 9.12697 11.8706 7.49689 11.9833V13.0004H8.99629C9.12885 13.0004 9.25597 13.0531 9.3497 13.1468C9.44343 13.2405 9.49609 13.3676 9.49609 13.5002C9.49609 13.6328 9.44343 13.7599 9.3497 13.8536C9.25597 13.9473 9.12885 14 8.99629 14H4.9979C4.86534 14 4.73821 13.9473 4.64448 13.8536C4.55075 13.7599 4.4981 13.6328 4.4981 13.5002C4.4981 13.3676 4.55075 13.2405 4.64448 13.1468C4.73821 13.0531 4.86534 13.0004 4.9979 13.0004H6.49729V11.9827C5.1717 11.8877 3.90056 11.4172 2.8326 10.6263C1.76464 9.83527 0.944019 8.7565 0.46676 7.51616C-0.0104982 6.27583 -0.124659 4.92523 0.137634 3.62238C0.399927 2.31953 1.02783 1.11833 1.94787 0.159299C1.99303 0.110773 2.04739 0.0717165 2.10779 0.044402C2.16819 0.0170874 2.23342 0.00206098 2.29969 0.000197529C2.36595 -0.00166592 2.43192 0.00967076 2.49376 0.0335477C2.5556 0.0574246 2.61207 0.0933647 2.65989 0.139276C2.70771 0.185186 2.74591 0.240151 2.77228 0.300968C2.79865 0.361786 2.81266 0.427243 2.8135 0.493526C2.81433 0.55981 2.80197 0.625598 2.77713 0.687058C2.75229 0.748519 2.71548 0.804425 2.66883 0.851521C1.57932 1.98324 0.977325 3.49724 0.992248 5.0681C1.00717 6.63896 1.63782 8.14126 2.74863 9.25207C3.85945 10.3629 5.36174 10.9935 6.9326 11.0085C8.50346 11.0234 10.0175 10.4214 11.1492 9.33187C11.2447 9.24001 11.3728 9.18986 11.5053 9.19243C11.6378 9.19501 11.7639 9.25011 11.8558 9.34562Z" fill="#87898E"/>
</svg>
