<svg width="42" height="40" viewBox="0 0 42 40" fill="none" xmlns="http://www.w3.org/2000/svg">
<path d="M41.3607 37.5661C38.3179 32.3056 33.6288 28.5335 28.1566 26.7454C30.8634 25.134 32.9664 22.6786 34.1427 19.7563C35.319 16.834 35.5035 13.6064 34.6679 10.5691C33.8322 7.53177 32.0227 4.85274 29.5171 2.94341C27.0115 1.03407 23.9484 0 20.7983 0C17.6481 0 14.585 1.03407 12.0795 2.94341C9.57388 4.85274 7.76433 7.53177 6.92869 10.5691C6.09306 13.6064 6.27755 16.834 7.45384 19.7563C8.63012 22.6786 10.7332 25.134 13.44 26.7454C7.96772 28.5315 3.27864 32.3036 0.235826 37.5661C0.12424 37.748 0.0502266 37.9505 0.0181513 38.1615C-0.0139239 38.3725 -0.00341097 38.5878 0.0490699 38.7947C0.101551 39.0016 0.194937 39.1958 0.323717 39.3661C0.452498 39.5363 0.614065 39.679 0.798885 39.7857C0.983706 39.8925 1.18804 39.9611 1.39982 39.9876C1.61161 40.0141 1.82655 39.998 2.03199 39.94C2.23742 39.8821 2.42917 39.7837 2.59593 39.6504C2.76269 39.5172 2.90107 39.352 3.00293 39.1644C6.76698 32.6592 13.42 28.7753 20.7983 28.7753C28.1765 28.7753 34.8296 32.6592 38.5936 39.1644C38.6955 39.352 38.8339 39.5172 39.0006 39.6504C39.1674 39.7837 39.3591 39.8821 39.5646 39.94C39.77 39.998 39.9849 40.0141 40.1967 39.9876C40.4085 39.9611 40.6128 39.8925 40.7977 39.7857C40.9825 39.679 41.1441 39.5363 41.2728 39.3661C41.4016 39.1958 41.495 39.0016 41.5475 38.7947C41.6 38.5878 41.6105 38.3725 41.5784 38.1615C41.5463 37.9505 41.4723 37.748 41.3607 37.5661ZM9.61 14.3904C9.61 12.1775 10.2662 10.0144 11.4956 8.17449C12.7249 6.33459 14.4723 4.90056 16.5167 4.05374C18.5611 3.20693 20.8107 2.98536 22.981 3.41706C25.1513 3.84877 27.1449 4.91435 28.7096 6.47905C30.2743 8.04376 31.3399 10.0373 31.7716 12.2076C32.2033 14.3779 31.9817 16.6275 31.1349 18.6719C30.2881 20.7163 28.854 22.4637 27.0141 23.6931C25.1742 24.9225 23.0111 25.5786 20.7983 25.5786C17.8319 25.5755 14.988 24.3957 12.8905 22.2982C10.793 20.2006 9.61317 17.3567 9.61 14.3904Z" fill="#E2242C"/>
</svg>
