<svg width="40" height="40" viewBox="0 0 40 40" fill="none" xmlns="http://www.w3.org/2000/svg">
<path d="M27.6828 6.1586C27.6828 5.75026 27.845 5.35865 28.1338 5.06991C28.4225 4.78117 28.8141 4.61895 29.2225 4.61895H32.3018V1.53967C32.3018 1.13133 32.464 0.739712 32.7527 0.450973C33.0414 0.162234 33.4331 2.18777e-05 33.8414 2.18777e-05C34.2497 2.18777e-05 34.6414 0.162234 34.9301 0.450973C35.2188 0.739712 35.381 1.13133 35.381 1.53967V4.61895H38.4603C38.8687 4.61895 39.2603 4.78117 39.549 5.06991C39.8378 5.35865 40 5.75026 40 6.1586C40 6.56694 39.8378 6.95855 39.549 7.24729C39.2603 7.53603 38.8687 7.69824 38.4603 7.69824H35.381V10.7775C35.381 11.1859 35.2188 11.5775 34.9301 11.8662C34.6414 12.155 34.2497 12.3172 33.8414 12.3172C33.4331 12.3172 33.0414 12.155 32.7527 11.8662C32.464 11.5775 32.3018 11.1859 32.3018 10.7775V7.69824H29.2225C28.8141 7.69824 28.4225 7.53603 28.1338 7.24729C27.845 6.95855 27.6828 6.56694 27.6828 6.1586ZM39.7228 16.6821C40.4262 20.8633 39.7826 25.1598 37.8849 28.9514C35.9873 32.743 32.9337 35.8334 29.1651 37.7764C25.3966 39.7194 21.108 40.4144 16.9187 39.7612C12.7293 39.108 8.85599 37.1402 5.85788 34.1421C2.85977 31.144 0.892049 27.2707 0.238812 23.0813C-0.414424 18.892 0.28063 14.6034 2.22362 10.8349C4.16661 7.06631 7.257 4.01275 11.0486 2.11506C14.8402 0.217371 19.1367 -0.426238 23.3179 0.277158C23.7176 0.347837 24.0732 0.573467 24.3074 0.904969C24.5415 1.23647 24.6353 1.64703 24.5684 2.04733C24.5014 2.44763 24.2791 2.8053 23.9497 3.04253C23.6204 3.27976 23.2108 3.37736 22.8098 3.31411C20.3813 2.90557 17.8929 3.03115 15.5179 3.68209C13.1428 4.33304 10.9381 5.49371 9.05721 7.08335C7.17632 8.67298 5.66442 10.6534 4.62672 12.8867C3.58903 15.1201 3.05047 17.5527 3.04852 20.0154C3.04487 24.1613 4.56862 28.1632 7.32873 31.2567C9.04588 28.7684 11.4604 26.8434 14.2687 25.7236C12.7602 24.5355 11.6594 22.9068 11.1195 21.0641C10.5795 19.2213 10.6272 17.2561 11.2559 15.4418C11.8847 13.6274 13.0632 12.0541 14.6275 10.9405C16.1919 9.82698 18.0644 9.22861 19.9846 9.22861C21.9048 9.22861 23.7773 9.82698 25.3417 10.9405C26.906 12.0541 28.0845 13.6274 28.7133 15.4418C29.342 17.2561 29.3897 19.2213 28.8497 21.0641C28.3098 22.9068 27.209 24.5355 25.7005 25.7236C28.5088 26.8434 30.9233 28.7684 32.6405 31.2567C35.4006 28.1632 36.9243 24.1613 36.9207 20.0154C36.9208 19.0688 36.8422 18.1238 36.6859 17.1901C36.6505 16.9899 36.6551 16.7846 36.6995 16.5861C36.7439 16.3876 36.8271 16.1998 36.9445 16.0337C37.0618 15.8676 37.2109 15.7264 37.3832 15.6182C37.5554 15.51 37.7474 15.4371 37.948 15.4035C38.1486 15.3699 38.3538 15.3764 38.5519 15.4227C38.75 15.4689 38.9369 15.5539 39.1019 15.6728C39.267 15.7917 39.4068 15.9421 39.5134 16.1153C39.6199 16.2885 39.6911 16.4812 39.7228 16.6821ZM19.9846 24.6343C21.2027 24.6343 22.3934 24.2731 23.4061 23.5964C24.4189 22.9197 25.2083 21.9579 25.6744 20.8325C26.1405 19.7072 26.2625 18.4689 26.0248 17.2743C25.7872 16.0796 25.2007 14.9823 24.3394 14.121C23.4781 13.2597 22.3807 12.6731 21.1861 12.4355C19.9914 12.1979 18.7532 12.3198 17.6278 12.786C16.5025 13.2521 15.5406 14.0415 14.8639 15.0542C14.1872 16.067 13.826 17.2577 13.826 18.4758C13.826 20.1091 14.4749 21.6756 15.6298 22.8305C16.7848 23.9855 18.3512 24.6343 19.9846 24.6343ZM19.9846 36.9515C23.744 36.9553 27.3967 35.702 30.3618 33.3911C29.248 31.6491 27.7136 30.2156 25.9001 29.2226C24.0865 28.2296 22.0522 27.7091 19.9846 27.7091C17.917 27.7091 15.8827 28.2296 14.0691 29.2226C12.2556 30.2156 10.7212 31.6491 9.6074 33.3911C12.5726 35.702 16.2253 36.9553 19.9846 36.9515Z" fill="#E2242C"/>
</svg>
